<svg xmlns="http://www.w3.org/2000/svg" viewBox="0 0 1240 336" width="1240" height="336" font-family="Inter, -apple-system, BlinkMacSystemFont, 'Segoe UI', Roboto, sans-serif">
  <rect x="0.5" y="0.5" width="1239" height="335" rx="20" fill="#ffffff" stroke="#E3E7EC"/>

  <!-- Title -->
  <text x="48" y="62" font-size="30" font-weight="700" fill="#171A21">Fix My Vibe</text>
  <text x="48" y="90" font-size="15.5" font-weight="400" fill="#6B7280">One deterministic engine · two front doors · grounded by Foundry IQ</text>

  <!-- Zone labels -->
  <text x="48" y="127" font-size="11" font-weight="600" letter-spacing="0.7" fill="#8A909A">FRONT DOORS</text>
  <text x="340" y="127" font-size="11" font-weight="600" letter-spacing="0.7" fill="#8A909A">SHARED ENGINE — DETERMINISTIC BY DESIGN</text>
  <text x="940" y="127" font-size="11" font-weight="600" letter-spacing="0.7" fill="#8A909A">FOUNDRY IQ · GROUNDING</text>

  <!-- ==== Front doors ==== -->
  <!-- Card A: Claude Code -->
  <rect x="48" y="138" width="248" height="54" rx="12" fill="#FBFCFD" stroke="#E1E6EC"/>
  <rect x="62" y="150" width="30" height="30" rx="8" fill="#F5EEE0"/>
  <g transform="translate(67,155) scale(0.8333)"><path fill="#191919" d="M17.3041 3.541h-3.6718l6.696 16.918H24Zm-10.6082 0L0 20.459h3.7442l1.3693-3.5527h7.0052l1.3693 3.5528h3.7442L10.5363 3.5409Zm-.3712 10.2232 2.2914-5.9456 2.2914 5.9456Z"/></g>
  <text x="104" y="161" font-size="14" font-weight="600" fill="#171A21">Claude Code</text>
  <text x="104" y="179" font-size="12" font-weight="400" fill="#6B7280">MCP server</text>
  <!-- Card B: CLI -->
  <rect x="48" y="200" width="248" height="54" rx="12" fill="#FBFCFD" stroke="#E1E6EC"/>
  <rect x="62" y="212" width="30" height="30" rx="8" fill="#21262E"/>
  <text x="77" y="232" font-size="15" font-weight="700" fill="#D9F2E1" text-anchor="middle">&#10095;</text>
  <text x="104" y="223" font-size="14" font-weight="600" fill="#171A21">fix-my-vibe</text>
  <text x="104" y="241" font-size="12" font-weight="400" fill="#6B7280">CLI</text>

  <!-- arrow 1 -->
  <text x="318" y="205" font-size="30" font-weight="400" fill="#9AA0A8" text-anchor="middle">&#8594;</text>

  <!-- ==== Engine ==== -->
  <rect x="340" y="138" width="560" height="116" rx="14" fill="#F9FBFD" stroke="#E1E6EC"/>
  <rect x="358" y="154" width="34" height="34" rx="8" fill="#DEEBF7"/>
  <g transform="translate(364,160) scale(0.9167)"><path fill="#3776AB" d="M14.25.18l.9.2.73.26.59.3.45.32.34.34.25.34.16.33.1.3.04.26.02.2-.01.13V8.5l-.05.63-.13.55-.21.46-.26.38-.3.31-.33.25-.35.19-.35.14-.33.1-.3.07-.26.04-.21.02H8.77l-.69.05-.59.14-.5.22-.41.27-.33.32-.27.35-.2.36-.15.37-.1.35-.07.32-.04.27-.02.21v3.06H3.17l-.21-.03-.28-.07-.32-.12-.35-.18-.36-.26-.36-.36-.35-.46-.32-.59-.28-.73-.21-.88-.14-1.05-.05-1.23.06-1.22.16-1.04.24-.87.32-.71.36-.57.4-.44.42-.33.42-.24.4-.16.36-.1.32-.05.24-.01h.16l.06.01h8.16v-.83H6.18l-.01-2.75-.02-.37.05-.34.11-.31.17-.28.25-.26.31-.23.38-.2.44-.18.51-.15.58-.12.64-.1.71-.06.77-.04.84-.02 1.27.05zm-6.3 1.98l-.23.33-.08.41.08.41.23.34.33.22.41.09.41-.09.33-.22.23-.34.08-.41-.08-.41-.23-.33-.33-.22-.41-.09-.41.09zm13.09 3.95l.28.06.32.12.35.18.36.27.36.35.35.47.32.59.28.73.21.88.14 1.04.05 1.23-.06 1.23-.16 1.04-.24.86-.32.71-.36.57-.4.45-.42.33-.42.24-.4.16-.36.09-.32.05-.24.02-.16-.01h-8.22v.82h5.84l.01 2.76.02.36-.05.34-.11.31-.17.29-.25.25-.31.24-.38.2-.44.17-.51.15-.58.13-.64.09-.71.07-.77.04-.84.01-1.27-.04-1.07-.14-.9-.2-.73-.25-.59-.3-.45-.33-.34-.34-.25-.34-.16-.33-.1-.3-.04-.25-.02-.2.01-.13v-5.34l.05-.64.13-.54.21-.46.26-.38.3-.32.33-.24.35-.2.35-.14.33-.1.3-.06.26-.04.21-.02.13-.01h5.84l.69-.05.59-.14.5-.21.41-.28.33-.32.27-.35.2-.36.15-.36.1-.35.07-.32.04-.28.02-.21V6.07h2.09l.14.01zm-6.47 14.25l-.23.33-.08.41.08.41.23.33.33.23.41.08.41-.08.33-.23.23-.33.08-.41-.08-.41-.23-.33-.33-.23-.41-.08-.41.08z"/></g>
  <text x="404" y="166" font-size="15" font-weight="600" fill="#171A21">Deterministic engine</text>
  <text x="404" y="183" font-size="12" font-weight="400" fill="#6B7280">pure Python · runs offline in both modes</text>

  <!-- pills -->
  <g>
    <rect x="358" y="206" width="46" height="24" rx="12" fill="#E6F5E9" stroke="#3CA057"/>
    <text x="381" y="222" font-size="11.5" font-weight="600" fill="#185C33" text-anchor="middle">Scan</text>
    <rect x="411" y="206" width="74" height="24" rx="12" fill="#E9F0FE" stroke="#337AE6"/>
    <text x="448" y="222" font-size="11.5" font-weight="600" fill="#1C54B6" text-anchor="middle">Research</text>
    <rect x="492" y="206" width="46" height="24" rx="12" fill="#FEF6DB" stroke="#DB9E1A"/>
    <text x="515" y="222" font-size="11.5" font-weight="600" fill="#8A6100" text-anchor="middle">Plan</text>
    <rect x="545" y="206" width="82" height="24" rx="12" fill="#FEF6DB" stroke="#DB9E1A"/>
    <text x="586" y="222" font-size="11.5" font-weight="600" fill="#8A6100" text-anchor="middle">Remediate</text>
    <rect x="634" y="206" width="96" height="24" rx="12" fill="#FFFFFF" stroke="#DB9E1A" stroke-width="1.4" stroke-dasharray="4 3"/>
    <text x="682" y="222" font-size="11.5" font-weight="700" fill="#8A6100" text-anchor="middle">&#9208; you confirm</text>
    <rect x="737" y="206" width="52" height="24" rx="12" fill="#E6F5E9" stroke="#3CA057"/>
    <text x="763" y="222" font-size="11.5" font-weight="600" fill="#185C33" text-anchor="middle">Apply</text>
    <rect x="796" y="206" width="58" height="24" rx="12" fill="#FEF6DB" stroke="#DB9E1A"/>
    <text x="825" y="222" font-size="11.5" font-weight="600" fill="#8A6100" text-anchor="middle">Verify</text>
  </g>

  <!-- grounds connector -->
  <text x="920" y="190" font-size="10" font-weight="600" letter-spacing="0.3" fill="#0078D4" text-anchor="middle">grounds</text>
  <text x="920" y="212" font-size="24" font-weight="400" fill="#8CB6E0" text-anchor="middle">&#8672;</text>

  <!-- ==== Foundry IQ ==== -->
  <rect x="940" y="138" width="252" height="116" rx="14" fill="#EDF6FE" stroke="#A2CFF2"/>
  <rect x="956" y="154" width="34" height="34" rx="9" fill="#0078D4"/>
  <text x="973" y="176" font-size="14" font-weight="700" fill="#ffffff" text-anchor="middle">IQ</text>
  <text x="1002" y="166" font-size="15" font-weight="600" fill="#171A21">Foundry IQ</text>
  <text x="1002" y="183" font-size="12" font-weight="400" fill="#6B7280">Azure AI Search</text>
  <text x="956" y="211" font-size="12.5" font-weight="400" fill="#47535C">Grounds every fix in a real source —</text>
  <text x="956" y="228" font-size="12.5" font-weight="400" fill="#47535C">OWASP · CWE · NIST — with a Tavily</text>
  <text x="956" y="245" font-size="12.5" font-weight="400" fill="#47535C">web-search fallback.</text>

  <!-- Legend -->
  <rect x="48" y="292" width="13" height="13" rx="4" fill="#E6F5E9" stroke="#3CA057"/>
  <text x="68" y="302" font-size="12" font-weight="400" fill="#59606B">deterministic Python — offline, both modes</text>
  <rect x="430" y="292" width="13" height="13" rx="4" fill="#E9F0FE" stroke="#337AE6"/>
  <text x="450" y="302" font-size="12" font-weight="400" fill="#59606B">LLM reasoning — Foundry mode</text>
  <rect x="700" y="292" width="13" height="13" rx="4" fill="#FEF6DB" stroke="#DB9E1A"/>
  <text x="720" y="302" font-size="12" font-weight="400" fill="#59606B">both</text>
</svg>
